<!--version="1.0" encoding="UTF-8" standalone="yes"--><svg xmlns="http://www.w3.org/2000/svg" xmlns:xlink="http://www.w3.org/1999/xlink" width="612pt" height="792pt">
 <g id="SFixTitle"/>
 <g id="SContent">
  <g transform="scale(1.33333)">
   <rect width="100%" height="100%" fill="white"/>
   <g>
    <g>
     <g/>
     <g shape-rendering="crispEdges"/>
     <g/>
    </g>
    <g>
     <g/>
    </g>
    <g>
     <g/>
    </g>
   </g>
   <g transform="matrix(1,0,0,1,54,72)">
    <defs>
     <clipPath id="CLIP0">
      <path d="M-0.5,-0.5 L476.5,-0.5 L476.5,643.5 L-0.5,643.5 Z "/>
     </clipPath>
    </defs>
    <g clip-path="url(#CLIP0)">
     <g/>
     <g shape-rendering="crispEdges"/>
     <g/>
    </g>
    <defs>
     <clipPath id="CLIP1">
      <path d="M-0.5,-1.45363903 L476.5,-1.45363903 L476.5,644.546386719 L-0.5,644.546386719 Z "/>
     </clipPath>
    </defs>
    <g clip-path="url(#CLIP1)">
     <g>
      <g/>
     </g>
    </g>
    <defs>
     <clipPath id="CLIP2">
      <path d="M-0.5,-0.5 L476.5,-0.5 L476.5,643.5 L-0.5,643.5 Z "/>
     </clipPath>
    </defs>
    <g clip-path="url(#CLIP2)">
     <g>
      <defs>
       <clipPath id="CLIP3">
        <path d="M0.25,0.25 L29.737474442,0.25 L29.737474442,98.597457886 L0.25,98.597457886 Z "/>
       </clipPath>
      </defs>
      <g clip-path="url(#CLIP3)">
       <g>
        <g transform="matrix(1,0,0,1,12.50373745,54.632598877)">
         <text x="0" y="-2.110664129" class="f0">v</text>
        </g>
       </g>
      </g>
      <defs>
       <clipPath id="CLIP4">
        <path d="M30.237474442,0.25 L47.887786865,0.25 L47.887786865,98.597457886 L30.237474442,98.597457886 Z "/>
       </clipPath>
      </defs>
      <g clip-path="url(#CLIP4)">
       <g>
        <g transform="matrix(1,0,0,1,36.020648956,54.632598877)">
         <text x="0" y="-2.110664129" class="f0">fr</text>
        </g>
       </g>
      </g>
      <defs>
       <clipPath id="CLIP5">
        <path d="M48.387786865,0.25 L62.881523132,0.25 L62.881523132,98.597457886 L48.387786865,98.597457886 Z "/>
       </clipPath>
      </defs>
      <g clip-path="url(#CLIP5)">
       <g>
        <g transform="matrix(1,0,0,1,51.758621216,54.632598877)">
         <text x="0" y="-2.110664129" class="f0">ip</text>
        </g>
       </g>
      </g>
      <defs>
       <clipPath id="CLIP6">
        <path d="M63.381526947,0.25 L86.555847168,0.25 L86.555847168,98.597457886 L63.381526947,98.597457886 Z "/>
       </clipPath>
      </defs>
      <g clip-path="url(#CLIP6)">
       <g>
        <g transform="matrix(1,0,0,1,69.429412842,54.632598877)">
         <text x="0" y="-2.110664129" class="f0">op</text>
        </g>
       </g>
      </g>
      <defs>
       <clipPath id="CLIP7">
        <path d="M87.055847168,0.25 L110.230171204,0.25 L110.230171204,98.597457886 L87.055847168,98.597457886 Z "/>
       </clipPath>
      </defs>
      <g clip-path="url(#CLIP7)">
       <g>
        <g transform="matrix(1,0,0,1,95.046615601,54.632598877)">
         <text x="0" y="-2.110664129" class="f0">w</text>
        </g>
       </g>
      </g>
      <defs>
       <clipPath id="CLIP8">
        <path d="M110.730171204,0.25 L133.904495239,0.25 L133.904495239,98.597457886 L110.730171204,98.597457886 Z "/>
       </clipPath>
      </defs>
      <g clip-path="url(#CLIP8)">
       <g>
        <g transform="matrix(1,0,0,1,119.547691345,54.632598877)">
         <text x="0" y="-2.110664129" class="f0">h</text>
        </g>
       </g>
      </g>
      <defs>
       <clipPath id="CLIP9">
        <path d="M134.404495239,0.25 L192.301147461,0.25 L192.301147461,98.597457886 L134.404495239,98.597457886 Z "/>
       </clipPath>
      </defs>
      <g clip-path="url(#CLIP9)">
       <g>
        <g transform="matrix(1,0,0,1,156.434814453,54.632598877)">
         <text x="0" y="-2.110664129" class="f0">nm</text>
        </g>
       </g>
      </g>
      <defs>
       <clipPath id="CLIP10">
        <path d="M192.801147461,0.25 L215.975463867,0.25 L215.975463867,98.597457886 L192.801147461,98.597457886 Z "/>
       </clipPath>
      </defs>
      <g clip-path="url(#CLIP10)">
       <g>
        <g transform="matrix(1,0,0,1,196.079391479,54.632598877)">
         <text x="0" y="-2.110664129" class="f0">ddd</text>
        </g>
       </g>
      </g>
      <defs>
       <clipPath id="CLIP11">
        <path d="M216.475479126,0.25 L3595.879638672,0.25 L3595.879638672,12.105932236 L216.475479126,12.105932236 Z "/>
       </clipPath>
      </defs>
      <g clip-path="url(#CLIP11)">
       <g>
        <g transform="matrix(1,0,0,1,1891.784667969,11.386839867)">
         <text x="0" y="-2.110664129" class="f0">assets</text>
        </g>
       </g>
      </g>
      <defs>
       <clipPath id="CLIP12">
        <path d="M216.475479126,12.605932236 L259.378417969,12.605932236 L259.378417969,98.597457886 L216.475479126,98.597457886 Z "/>
       </clipPath>
      </defs>
      <g clip-path="url(#CLIP12)">
       <g>
        <g transform="matrix(1,0,0,1,234.05090332,60.810569763)">
         <text x="0" y="-2.110664129" class="f0">id</text>
        </g>
       </g>
      </g>
      <defs>
       <clipPath id="CLIP13">
        <path d="M259.878387451,12.605932236 L3595.879638672,12.605932236 L3595.879638672,24.461864471 L259.878387451,24.461864471 Z "/>
       </clipPath>
      </defs>
      <g clip-path="url(#CLIP13)">
       <g>
        <g transform="matrix(1,0,0,1,1914.594970703,23.742771149)">
         <text x="0" y="-2.110664129" class="f0">layers</text>
        </g>
       </g>
      </g>
      <defs>
       <clipPath id="CLIP14">
        <path d="M259.878387451,24.961864471 L283.052703857,24.961864471 L283.052703857,98.597457886 L259.878387451,98.597457886 Z "/>
       </clipPath>
      </defs>
      <g clip-path="url(#CLIP14)">
       <g>
        <g transform="matrix(1,0,0,1,263.156646729,66.98853302)">
         <text x="0" y="-2.110664129" class="f0">ddd</text>
        </g>
       </g>
      </g>
      <defs>
       <clipPath id="CLIP15">
        <path d="M283.552734375,24.961864471 L303.570495605,24.961864471 L303.570495605,98.597457886 L283.552734375,98.597457886 Z "/>
       </clipPath>
      </defs>
      <g clip-path="url(#CLIP15)">
       <g>
        <g transform="matrix(1,0,0,1,286.915924072,66.98853302)">
         <text x="0" y="-2.110664129" class="f0">ind</text>
        </g>
       </g>
      </g>
      <defs>
       <clipPath id="CLIP16">
        <path d="M304.070465088,24.961864471 L319.35333252,24.961864471 L319.35333252,98.597457886 L304.070465088,98.597457886 Z "/>
       </clipPath>
      </defs>
      <g clip-path="url(#CLIP16)">
       <g>
        <g transform="matrix(1,0,0,1,307.838317871,66.98853302)">
         <text x="0" y="-2.110664129" class="f0">ty</text>
        </g>
       </g>
      </g>
      <defs>
       <clipPath id="CLIP17">
        <path d="M319.853363037,24.961864471 L446.405548096,24.961864471 L446.405548096,98.597457886 L319.853363037,98.597457886 Z "/>
       </clipPath>
      </defs>
      <g clip-path="url(#CLIP17)">
       <g>
        <g transform="matrix(1,0,0,1,376.211425781,66.98853302)">
         <text x="0" y="-2.110664129" class="f0">nm</text>
        </g>
       </g>
      </g>
      <defs>
       <clipPath id="CLIP18">
        <path d="M446.905548096,24.961864471 L462.188415527,24.961864471 L462.188415527,98.597457886 L446.905548096,98.597457886 Z "/>
       </clipPath>
      </defs>
      <g clip-path="url(#CLIP18)">
       <g>
        <g transform="matrix(1,0,0,1,450.398620605,66.98853302)">
         <text x="0" y="-2.110664129" class="f0">sr</text>
        </g>
       </g>
      </g>
      <defs>
       <clipPath id="CLIP19">
        <path d="M462.688415527,24.961864471 L1257.645629883,24.961864471 L1257.645629883,36.8177948 L462.688415527,36.8177948 Z "/>
       </clipPath>
      </defs>
      <g clip-path="url(#CLIP19)">
       <g>
        <g transform="matrix(1,0,0,1,855.187011719,36.098701477)">
         <text x="0" y="-2.110664129" class="f0">ks</text>
        </g>
       </g>
      </g>
      <defs>
       <clipPath id="CLIP20">
        <path d="M462.688415527,37.3177948 L669.733276367,37.3177948 L669.733276367,49.173728943 L462.688415527,49.173728943 Z "/>
       </clipPath>
      </defs>
      <g clip-path="url(#CLIP20)">
       <g>
        <g transform="matrix(1,0,0,1,563.441223145,48.45463562)">
         <text x="0" y="-2.110664129" class="f0">o</text>
        </g>
       </g>
      </g>
      <defs>
       <clipPath id="CLIP21">
        <path d="M462.688415527,49.673728943 L474.814727783,49.673728943 L474.814727783,98.597457886 L462.688415527,98.597457886 Z "/>
       </clipPath>
      </defs>
      <g clip-path="url(#CLIP21)">
       <g>
        <g transform="matrix(1,0,0,1,465.981933594,79.344467163)">
         <text x="0" y="-2.110664129" class="f0">a</text>
        </g>
       </g>
      </g>
      <defs>
       <clipPath id="CLIP22">
        <path d="M0.25,99.097457886 L29.737474442,99.097457886 L29.737474442,110.953392029 L0.25,110.953392029 Z "/>
       </clipPath>
      </defs>
      <g clip-path="url(#CLIP22)">
       <g>
        <g transform="matrix(1,0,0,1,1.052192092,110.234298706)">
         <text x="1" y="-2.110664129" class="f0">5.5.8</text>
        </g>
       </g>
      </g>
      <defs>
       <clipPath id="CLIP23">
        <path d="M30.237474442,99.097457886 L47.887786865,99.097457886 L47.887786865,110.953392029 L30.237474442,110.953392029 Z "/>
       </clipPath>
      </defs>
      <g clip-path="url(#CLIP23)">
       <g>
        <g transform="matrix(1,0,0,1,36.059234619,110.234298706)">
         <text x="-1" y="-2.110664129" class="f0">50</text>
        </g>
       </g>
      </g>
      <defs>
       <clipPath id="CLIP24">
        <path d="M48.387786865,99.097457886 L62.881523132,99.097457886 L62.881523132,110.953392029 L48.387786865,110.953392029 Z "/>
       </clipPath>
      </defs>
      <g clip-path="url(#CLIP24)">
       <g>
        <g transform="matrix(1,0,0,1,56.592247009,110.234298706)">
         <text x="-1" y="-2.110664129" class="f0">0</text>
        </g>
       </g>
      </g>
      <defs>
       <clipPath id="CLIP25">
        <path d="M63.381526947,99.097457886 L86.555847168,99.097457886 L86.555847168,110.953392029 L63.381526947,110.953392029 Z "/>
       </clipPath>
      </defs>
      <g clip-path="url(#CLIP25)">
       <g>
        <g transform="matrix(1,0,0,1,69.188018799,110.234298706)">
         <text x="-1" y="-2.110664129" class="f0">147</text>
        </g>
       </g>
      </g>
      <defs>
       <clipPath id="CLIP26">
        <path d="M87.055847168,99.097457886 L110.230171204,99.097457886 L110.230171204,110.953392029 L87.055847168,110.953392029 Z "/>
       </clipPath>
      </defs>
      <g clip-path="url(#CLIP26)">
       <g>
        <g transform="matrix(1,0,0,1,92.862335205,110.234298706)">
         <text x="-1" y="-2.110664129" class="f0">800</text>
        </g>
       </g>
      </g>
      <defs>
       <clipPath id="CLIP27">
        <path d="M110.730171204,99.097457886 L133.904495239,99.097457886 L133.904495239,110.953392029 L110.730171204,110.953392029 Z "/>
       </clipPath>
      </defs>
      <g clip-path="url(#CLIP27)">
       <g>
        <g transform="matrix(1,0,0,1,116.536659241,110.234298706)">
         <text x="-1" y="-2.110664129" class="f0">600</text>
        </g>
       </g>
      </g>
      <defs>
       <clipPath id="CLIP28">
        <path d="M134.404495239,99.097457886 L192.301147461,99.097457886 L192.301147461,110.953392029 L134.404495239,110.953392029 Z "/>
       </clipPath>
      </defs>
      <g clip-path="url(#CLIP28)">
       <g>
        <g transform="matrix(1,0,0,1,135.206680298,110.234298706)">
         <text x="1" y="-2.110664129" class="f0">Paperplane</text>
        </g>
       </g>
      </g>
      <defs>
       <clipPath id="CLIP29">
        <path d="M192.801147461,99.097457886 L215.975463867,99.097457886 L215.975463867,110.953392029 L192.801147461,110.953392029 Z "/>
       </clipPath>
      </defs>
      <g clip-path="url(#CLIP29)">
       <g>
        <g transform="matrix(1,0,0,1,209.686187744,110.234298706)">
         <text x="-1" y="-2.110664129" class="f0">0</text>
        </g>
       </g>
      </g>
      <defs>
       <clipPath id="CLIP30">
        <path d="M216.475479126,99.097457886 L259.378417969,99.097457886 L259.378417969,110.953392029 L216.475479126,110.953392029 Z "/>
       </clipPath>
      </defs>
      <g clip-path="url(#CLIP30)">
       <g>
        <g transform="matrix(1,0,0,1,217.277664185,110.234298706)">
         <text x="1" y="-2.110664129" class="f0">comp_0</text>
        </g>
       </g>
      </g>
      <defs>
       <clipPath id="CLIP31">
        <path d="M259.878387451,99.097457886 L283.052703857,99.097457886 L283.052703857,110.953392029 L259.878387451,110.953392029 Z "/>
       </clipPath>
      </defs>
      <g clip-path="url(#CLIP31)">
       <g>
        <g transform="matrix(1,0,0,1,276.763427734,110.234298706)">
         <text x="-1" y="-2.110664129" class="f0">0</text>
        </g>
       </g>
      </g>
      <defs>
       <clipPath id="CLIP32">
        <path d="M283.552734375,99.097457886 L303.570495605,99.097457886 L303.570495605,110.953392029 L283.552734375,110.953392029 Z "/>
       </clipPath>
      </defs>
      <g clip-path="url(#CLIP32)">
       <g>
        <g transform="matrix(1,0,0,1,297.281188965,110.234298706)">
         <text x="-1" y="-2.110664129" class="f0">1</text>
        </g>
       </g>
      </g>
      <defs>
       <clipPath id="CLIP33">
        <path d="M304.070465088,99.097457886 L319.35333252,99.097457886 L319.35333252,110.953392029 L304.070465088,110.953392029 Z "/>
       </clipPath>
      </defs>
      <g clip-path="url(#CLIP33)">
       <g>
        <g transform="matrix(1,0,0,1,313.064056396,110.234298706)">
         <text x="-1" y="-2.110664129" class="f0">4</text>
        </g>
       </g>
      </g>
      <defs>
       <clipPath id="CLIP34">
        <path d="M319.853363037,99.097457886 L446.405548096,99.097457886 L446.405548096,110.953392029 L319.853363037,110.953392029 Z "/>
       </clipPath>
      </defs>
      <g clip-path="url(#CLIP34)">
       <g>
        <g transform="matrix(1,0,0,1,320.655548096,110.234298706)">
         <text x="1" y="-2.110664129" class="f0">planete</text>
         <text x="33.676387787" y="-2.110664129" class="f0"> </text>
         <text x="36.443595886" y="-2.110664129" class="f0">Outlines</text>
         <text x="72.981430054" y="-2.110664129" class="f0"> </text>
         <text x="75.748634338" y="-2.110664129" class="f0">-</text>
         <text x="79.065391541" y="-2.110664129" class="f0"> </text>
         <text x="81.832595825" y="-2.110664129" class="f0">Group</text>
         <text x="109.514389038" y="-2.110664129" class="f0"> </text>
         <text x="112.281593323" y="-2.110664129" class="f0">4</text>
        </g>
       </g>
      </g>
      <defs>
       <clipPath id="CLIP35">
        <path d="M446.905548096,99.097457886 L462.188415527,99.097457886 L462.188415527,110.953392029 L446.905548096,110.953392029 Z "/>
       </clipPath>
      </defs>
      <g clip-path="url(#CLIP35)">
       <g>
        <g transform="matrix(1,0,0,1,455.899139404,110.234298706)">
         <text x="-1" y="-2.110664129" class="f0">1</text>
        </g>
       </g>
      </g>
      <defs>
       <clipPath id="CLIP36">
        <path d="M462.688415527,99.097457886 L474.814727783,99.097457886 L474.814727783,110.953392029 L462.688415527,110.953392029 Z "/>
       </clipPath>
      </defs>
      <g clip-path="url(#CLIP36)">
       <g>
        <g transform="matrix(1,0,0,1,468.52545166,110.234298706)">
         <text x="-1" y="-2.110664129" class="f0">1</text>
        </g>
       </g>
      </g>
      <defs>
       <clipPath id="CLIP37">
        <path d="M259.878387451,543.911010742 L283.052703857,543.911010742 L283.052703857,555.766967773 L259.878387451,555.766967773 Z "/>
       </clipPath>
      </defs>
      <g clip-path="url(#CLIP37)">
       <g>
        <g transform="matrix(1,0,0,1,276.763427734,555.047851563)">
         <text x="-1" y="-2.110664129" class="f0">0</text>
        </g>
       </g>
      </g>
      <defs>
       <clipPath id="CLIP38">
        <path d="M283.552734375,543.911010742 L303.570495605,543.911010742 L303.570495605,555.766967773 L283.552734375,555.766967773 Z "/>
       </clipPath>
      </defs>
      <g clip-path="url(#CLIP38)">
       <g>
        <g transform="matrix(1,0,0,1,297.281188965,555.047851563)">
         <text x="-1" y="-2.110664129" class="f0">2</text>
        </g>
       </g>
      </g>
      <defs>
       <clipPath id="CLIP39">
        <path d="M304.070465088,543.911010742 L319.35333252,543.911010742 L319.35333252,555.766967773 L304.070465088,555.766967773 Z "/>
       </clipPath>
      </defs>
      <g clip-path="url(#CLIP39)">
       <g>
        <g transform="matrix(1,0,0,1,313.064056396,555.047851563)">
         <text x="-1" y="-2.110664129" class="f0">4</text>
        </g>
       </g>
      </g>
      <defs>
       <clipPath id="CLIP40">
        <path d="M319.853363037,543.911010742 L446.405548096,543.911010742 L446.405548096,555.766967773 L319.853363037,555.766967773 Z "/>
       </clipPath>
      </defs>
      <g clip-path="url(#CLIP40)">
       <g>
        <g transform="matrix(1,0,0,1,320.655548096,555.047851563)">
         <text x="1" y="-2.110664129" class="f0">Merged</text>
         <text x="34.770626068" y="-2.110664129" class="f0"> </text>
         <text x="37.537834167" y="-2.110664129" class="f0">Shape</text>
         <text x="66.338188171" y="-2.110664129" class="f0"> </text>
         <text x="69.105392456" y="-2.110664129" class="f0">Layer</text>
        </g>
       </g>
      </g>
      <defs>
       <clipPath id="CLIP41">
        <path d="M446.905548096,543.911010742 L462.188415527,543.911010742 L462.188415527,555.766967773 L446.905548096,555.766967773 Z "/>
       </clipPath>
      </defs>
      <g clip-path="url(#CLIP41)">
       <g>
        <g transform="matrix(1,0,0,1,455.899139404,555.047851563)">
         <text x="-1" y="-2.110664129" class="f0">1</text>
        </g>
       </g>
      </g>
      <defs>
       <clipPath id="CLIP42">
        <path d="M462.688415527,543.911010742 L474.814727783,543.911010742 L474.814727783,555.766967773 L462.688415527,555.766967773 Z "/>
       </clipPath>
      </defs>
      <g clip-path="url(#CLIP42)">
       <g>
        <g transform="matrix(1,0,0,1,468.52545166,555.047851563)">
         <text x="-1" y="-2.110664129" class="f0">0</text>
        </g>
       </g>
      </g>
     </g>
    </g>
    <defs>
     <clipPath id="CLIP43">
      <path d="M-0.5,-0.5 L476.5,-0.5 L476.5,643.5 L-0.5,643.5 Z "/>
     </clipPath>
    </defs>
    <g clip-path="url(#CLIP43)">
     <g/>
    </g>
   </g>
   <g/>
   <g/>
   <g/>
   <g>
    <g>
     <g/>
     <g shape-rendering="crispEdges"/>
     <g/>
    </g>
    <g>
     <g/>
    </g>
    <g>
     <g/>
    </g>
   </g>
  </g>
 </g>
 <defs/>
 <defs>
  <style type="text/css">.f0 { font-family: Arial; font-size: 9.96px; fill: rgb(0, 0, 0); }</style>
 </defs>
</svg>