<!--version="1.0" encoding="UTF-8" standalone="yes"--><svg xmlns="http://www.w3.org/2000/svg" xmlns:xlink="http://www.w3.org/1999/xlink" width="612pt" height="792pt">
 <g id="SFixTitle"/>
 <g id="SContent">
  <g transform="scale(1.33333)">
   <rect width="100%" height="100%" fill="white"/>
   <g>
    <g>
     <g/>
     <g shape-rendering="crispEdges"/>
     <g/>
    </g>
    <g>
     <g/>
    </g>
    <g>
     <g/>
    </g>
   </g>
   <g transform="matrix(1,0,0,1,54,72)">
    <defs>
     <clipPath id="CLIP0">
      <path d="M-0.5,-0.5 L496.5,-0.5 L496.5,643.5 L-0.5,643.5 Z "/>
     </clipPath>
    </defs>
    <g clip-path="url(#CLIP0)">
     <g/>
     <g shape-rendering="crispEdges"/>
     <g/>
    </g>
    <defs>
     <clipPath id="CLIP1">
      <path d="M-0.5,-1.45363903 L496.5,-1.45363903 L496.5,644.546386719 L-0.5,644.546386719 Z "/>
     </clipPath>
    </defs>
    <g clip-path="url(#CLIP1)">
     <g>
      <g/>
     </g>
    </g>
    <defs>
     <clipPath id="CLIP2">
      <path d="M-0.5,-0.5 L496.5,-0.5 L496.5,643.5 L-0.5,643.5 Z "/>
     </clipPath>
    </defs>
    <g clip-path="url(#CLIP2)">
     <g>
      <defs>
       <clipPath id="CLIP3">
        <path d="M0.25,0.25 L35.261482239,0.25 L35.261482239,73.885597229 L0.25,73.885597229 Z "/>
       </clipPath>
      </defs>
      <g clip-path="url(#CLIP3)">
       <g>
        <g transform="matrix(1,0,0,1,15.265741348,42.276672363)">
         <text x="0" y="-2.110664129" class="f0">v</text>
        </g>
       </g>
      </g>
      <defs>
       <clipPath id="CLIP4">
        <path d="M35.761482239,0.25 L100.760437012,0.25 L100.760437012,73.885597229 L35.761482239,73.885597229 Z "/>
       </clipPath>
      </defs>
      <g clip-path="url(#CLIP4)">
       <g>
        <g transform="matrix(1,0,0,1,65.218978882,42.276672363)">
         <text x="0" y="-2.110664129" class="f0">fr</text>
        </g>
       </g>
      </g>
      <defs>
       <clipPath id="CLIP5">
        <path d="M101.260437012,0.25 L115.754173279,0.25 L115.754173279,73.885597229 L101.260437012,73.885597229 Z "/>
       </clipPath>
      </defs>
      <g clip-path="url(#CLIP5)">
       <g>
        <g transform="matrix(1,0,0,1,104.631271362,42.276672363)">
         <text x="0" y="-2.110664129" class="f0">ip</text>
        </g>
       </g>
      </g>
      <defs>
       <clipPath id="CLIP6">
        <path d="M116.254180908,0.25 L181.253143311,0.25 L181.253143311,73.885597229 L116.254180908,73.885597229 Z "/>
       </clipPath>
      </defs>
      <g clip-path="url(#CLIP6)">
       <g>
        <g transform="matrix(1,0,0,1,143.214385986,42.276672363)">
         <text x="0" y="-2.110664129" class="f0">op</text>
        </g>
       </g>
      </g>
      <defs>
       <clipPath id="CLIP7">
        <path d="M181.753143311,0.25 L204.927459717,0.25 L204.927459717,73.885597229 L181.753143311,73.885597229 Z "/>
       </clipPath>
      </defs>
      <g clip-path="url(#CLIP7)">
       <g>
        <g transform="matrix(1,0,0,1,189.743911743,42.276672363)">
         <text x="0" y="-2.110664129" class="f0">w</text>
        </g>
       </g>
      </g>
      <defs>
       <clipPath id="CLIP8">
        <path d="M205.427459717,0.25 L228.601776123,0.25 L228.601776123,73.885597229 L205.427459717,73.885597229 Z "/>
       </clipPath>
      </defs>
      <g clip-path="url(#CLIP8)">
       <g>
        <g transform="matrix(1,0,0,1,214.244979858,42.276672363)">
         <text x="0" y="-2.110664129" class="f0">h</text>
        </g>
       </g>
      </g>
      <defs>
       <clipPath id="CLIP9">
        <path d="M229.101776123,0.25 L260.956695557,0.25 L260.956695557,73.885597229 L229.101776123,73.885597229 Z "/>
       </clipPath>
      </defs>
      <g clip-path="url(#CLIP9)">
       <g>
        <g transform="matrix(1,0,0,1,238.111206055,42.276672363)">
         <text x="0" y="-2.110664129" class="f0">nm</text>
        </g>
       </g>
      </g>
      <defs>
       <clipPath id="CLIP10">
        <path d="M261.456695557,0.25 L284.631011963,0.25 L284.631011963,73.885597229 L261.456695557,73.885597229 Z "/>
       </clipPath>
      </defs>
      <g clip-path="url(#CLIP10)">
       <g>
        <g transform="matrix(1,0,0,1,264.734954834,42.276672363)">
         <text x="0" y="-2.110664129" class="f0">ddd</text>
        </g>
       </g>
      </g>
      <defs>
       <clipPath id="CLIP11">
        <path d="M285.131011963,0.25 L322.509918213,0.25 L322.509918213,73.885597229 L285.131011963,73.885597229 Z "/>
       </clipPath>
      </defs>
      <g clip-path="url(#CLIP11)">
       <g>
        <g transform="matrix(1,0,0,1,289.427581787,42.276672363)">
         <text x="0" y="-2.110664129" class="f0">assets</text>
        </g>
       </g>
      </g>
      <defs>
       <clipPath id="CLIP12">
        <path d="M323.009918213,0.25 L3337.040283203,0.25 L3337.040283203,12.105932236 L323.009918213,12.105932236 Z "/>
       </clipPath>
      </defs>
      <g clip-path="url(#CLIP12)">
       <g>
        <g transform="matrix(1,0,0,1,1816.740966797,11.386839867)">
         <text x="0" y="-2.110664129" class="f0">layers</text>
        </g>
       </g>
      </g>
      <defs>
       <clipPath id="CLIP13">
        <path d="M323.009918213,12.605932236 L346.184234619,12.605932236 L346.184234619,73.885597229 L323.009918213,73.885597229 Z "/>
       </clipPath>
      </defs>
      <g clip-path="url(#CLIP13)">
       <g>
        <g transform="matrix(1,0,0,1,326.28817749,48.45463562)">
         <text x="0" y="-2.110664129" class="f0">ddd</text>
        </g>
       </g>
      </g>
      <defs>
       <clipPath id="CLIP14">
        <path d="M346.684234619,12.605932236 L366.701965332,12.605932236 L366.701965332,73.885597229 L346.684234619,73.885597229 Z "/>
       </clipPath>
      </defs>
      <g clip-path="url(#CLIP14)">
       <g>
        <g transform="matrix(1,0,0,1,350.047424316,48.45463562)">
         <text x="0" y="-2.110664129" class="f0">ind</text>
        </g>
       </g>
      </g>
      <defs>
       <clipPath id="CLIP15">
        <path d="M367.20199585,12.605932236 L382.484863281,12.605932236 L382.484863281,73.885597229 L367.20199585,73.885597229 Z "/>
       </clipPath>
      </defs>
      <g clip-path="url(#CLIP15)">
       <g>
        <g transform="matrix(1,0,0,1,370.969848633,48.45463562)">
         <text x="0" y="-2.110664129" class="f0">ty</text>
        </g>
       </g>
      </g>
      <defs>
       <clipPath id="CLIP16">
        <path d="M382.984863281,12.605932236 L495.332458496,12.605932236 L495.332458496,73.885597229 L382.984863281,73.885597229 Z "/>
       </clipPath>
      </defs>
      <g clip-path="url(#CLIP16)">
       <g>
        <g transform="matrix(1,0,0,1,432.240661621,48.45463562)">
         <text x="0" y="-2.110664129" class="f0">nm</text>
        </g>
       </g>
      </g>
      <defs>
       <clipPath id="CLIP17">
        <path d="M0.25,74.3855896 L35.261482239,74.3855896 L35.261482239,86.241523743 L0.25,86.241523743 Z "/>
       </clipPath>
      </defs>
      <g clip-path="url(#CLIP17)">
       <g>
        <g transform="matrix(1,0,0,1,1.052192092,85.52243042)">
         <text x="1" y="-2.110664129" class="f0">5.1.13</text>
        </g>
       </g>
      </g>
      <defs>
       <clipPath id="CLIP18">
        <path d="M35.761482239,74.3855896 L100.760437012,74.3855896 L100.760437012,86.241523743 L35.761482239,86.241523743 Z "/>
       </clipPath>
      </defs>
      <g clip-path="url(#CLIP18)">
       <g>
        <g transform="matrix(1,0,0,1,41.850456238,85.52243042)">
         <text x="-1" y="-2.110664129" class="f0">29.97000122</text>
        </g>
       </g>
      </g>
      <defs>
       <clipPath id="CLIP19">
        <path d="M101.260437012,74.3855896 L115.754173279,74.3855896 L115.754173279,86.241523743 L101.260437012,86.241523743 Z "/>
       </clipPath>
      </defs>
      <g clip-path="url(#CLIP19)">
       <g>
        <g transform="matrix(1,0,0,1,109.464897156,85.52243042)">
         <text x="-1" y="-2.110664129" class="f0">0</text>
        </g>
       </g>
      </g>
      <defs>
       <clipPath id="CLIP20">
        <path d="M116.254180908,74.3855896 L181.253143311,74.3855896 L181.253143311,86.241523743 L116.254180908,86.241523743 Z "/>
       </clipPath>
      </defs>
      <g clip-path="url(#CLIP20)">
       <g>
        <g transform="matrix(1,0,0,1,122.343154907,85.52243042)">
         <text x="-1" y="-2.110664129" class="f0">90.00000367</text>
        </g>
       </g>
      </g>
      <defs>
       <clipPath id="CLIP21">
        <path d="M181.753143311,74.3855896 L204.927459717,74.3855896 L204.927459717,86.241523743 L181.753143311,86.241523743 Z "/>
       </clipPath>
      </defs>
      <g clip-path="url(#CLIP21)">
       <g>
        <g transform="matrix(1,0,0,1,187.559631348,85.52243042)">
         <text x="-1" y="-2.110664129" class="f0">500</text>
        </g>
       </g>
      </g>
      <defs>
       <clipPath id="CLIP22">
        <path d="M205.427459717,74.3855896 L228.601776123,74.3855896 L228.601776123,86.241523743 L205.427459717,86.241523743 Z "/>
       </clipPath>
      </defs>
      <g clip-path="url(#CLIP22)">
       <g>
        <g transform="matrix(1,0,0,1,211.233947754,85.52243042)">
         <text x="-1" y="-2.110664129" class="f0">500</text>
        </g>
       </g>
      </g>
      <defs>
       <clipPath id="CLIP23">
        <path d="M229.101776123,74.3855896 L260.956695557,74.3855896 L260.956695557,86.241523743 L229.101776123,86.241523743 Z "/>
       </clipPath>
      </defs>
      <g clip-path="url(#CLIP23)">
       <g>
        <g transform="matrix(1,0,0,1,229.903961182,85.52243042)">
         <text x="1" y="-2.110664129" class="f0">maps</text>
        </g>
       </g>
      </g>
      <defs>
       <clipPath id="CLIP24">
        <path d="M261.456695557,74.3855896 L284.631011963,74.3855896 L284.631011963,86.241523743 L261.456695557,86.241523743 Z "/>
       </clipPath>
      </defs>
      <g clip-path="url(#CLIP24)">
       <g>
        <g transform="matrix(1,0,0,1,278.34173584,85.52243042)">
         <text x="-1" y="-2.110664129" class="f0">0</text>
        </g>
       </g>
      </g>
      <defs>
       <clipPath id="CLIP25">
        <path d="M323.009918213,74.3855896 L346.184234619,74.3855896 L346.184234619,86.241523743 L323.009918213,86.241523743 Z "/>
       </clipPath>
      </defs>
      <g clip-path="url(#CLIP25)">
       <g>
        <g transform="matrix(1,0,0,1,339.894958496,85.52243042)">
         <text x="-1" y="-2.110664129" class="f0">0</text>
        </g>
       </g>
      </g>
      <defs>
       <clipPath id="CLIP26">
        <path d="M346.684234619,74.3855896 L366.701965332,74.3855896 L366.701965332,86.241523743 L346.684234619,86.241523743 Z "/>
       </clipPath>
      </defs>
      <g clip-path="url(#CLIP26)">
       <g>
        <g transform="matrix(1,0,0,1,360.412689209,85.52243042)">
         <text x="-1" y="-2.110664129" class="f0">1</text>
        </g>
       </g>
      </g>
      <defs>
       <clipPath id="CLIP27">
        <path d="M367.20199585,74.3855896 L382.484863281,74.3855896 L382.484863281,86.241523743 L367.20199585,86.241523743 Z "/>
       </clipPath>
      </defs>
      <g clip-path="url(#CLIP27)">
       <g>
        <g transform="matrix(1,0,0,1,376.195587158,85.52243042)">
         <text x="-1" y="-2.110664129" class="f0">4</text>
        </g>
       </g>
      </g>
      <defs>
       <clipPath id="CLIP28">
        <path d="M382.984863281,74.3855896 L495.332458496,74.3855896 L495.332458496,86.241523743 L382.984863281,86.241523743 Z "/>
       </clipPath>
      </defs>
      <g clip-path="url(#CLIP28)">
       <g>
        <g transform="matrix(1,0,0,1,383.78704834,85.52243042)">
         <text x="1" y="-2.110664129" class="f0">Calque</text>
         <text x="32.562698364" y="-2.110664129" class="f0"> </text>
         <text x="35.329906464" y="-2.110664129" class="f0">111</text>
         <text x="51.947738647" y="-2.110664129" class="f0"> </text>
         <text x="54.714946747" y="-2.110664129" class="f0">Silhouettes</text>
        </g>
       </g>
      </g>
     </g>
    </g>
    <defs>
     <clipPath id="CLIP29">
      <path d="M-0.5,-0.5 L496.5,-0.5 L496.5,643.5 L-0.5,643.5 Z "/>
     </clipPath>
    </defs>
    <g clip-path="url(#CLIP29)">
     <g/>
    </g>
   </g>
   <g/>
   <g/>
   <g/>
   <g>
    <g>
     <g/>
     <g shape-rendering="crispEdges"/>
     <g/>
    </g>
    <g>
     <g/>
    </g>
    <g>
     <g/>
    </g>
   </g>
  </g>
 </g>
 <defs/>
 <defs>
  <style type="text/css">.f0 { font-family: Arial; font-size: 9.96px; fill: rgb(0, 0, 0); }</style>
 </defs>
</svg>